<mxfile host="app.diagrams.net" modified="2025-06-03T06:03:31.989Z" agent="Mozilla/5.0 (Windows NT 10.0; Win64; x64) AppleWebKit/537.36 (KHTML, like Gecko) Chrome/136.0.0.0 Safari/537.36" version="24.6.4" etag="X6c4p2H_DBpGRumuLwIJ" type="github">
  <diagram name="Page-1" id="zF9Pnj-bzJhzLGRrGpA6">
    <mxGraphModel>
      <root>
        <mxCell id="0" />
        <mxCell id="1" parent="0" />
      </root>
    </mxGraphModel>
  </diagram>
</mxfile>
